solid OpenSCAD_Model
  facet normal -1 0 0
    outer loop
      vertex 15 0 10
      vertex 15 10 10
      vertex 15 0 0
    endloop
  endfacet
  facet normal -1 0 0
    outer loop
      vertex 15 0 0
      vertex 15 10 10
      vertex 15 10 0
    endloop
  endfacet
  facet normal 0 0 1
    outer loop
      vertex 15 0 10
      vertex 25 0 10
      vertex 25 10 10
    endloop
  endfacet
  facet normal 0 0 1
    outer loop
      vertex 15 10 10
      vertex 15 0 10
      vertex 25 10 10
    endloop
  endfacet
  facet normal 0 -1 0
    outer loop
      vertex 15 0 0
      vertex 25 0 0
      vertex 25 0 10
    endloop
  endfacet
  facet normal 0 -1 0
    outer loop
      vertex 15 0 10
      vertex 15 0 0
      vertex 25 0 10
    endloop
  endfacet
  facet normal 0 0 -1
    outer loop
      vertex 15 10 0
      vertex 25 10 0
      vertex 15 0 0
    endloop
  endfacet
  facet normal 0 0 -1
    outer loop
      vertex 15 0 0
      vertex 25 10 0
      vertex 25 0 0
    endloop
  endfacet
  facet normal 0 1 0
    outer loop
      vertex 15 10 10
      vertex 25 10 10
      vertex 15 10 0
    endloop
  endfacet
  facet normal 0 1 0
    outer loop
      vertex 15 10 0
      vertex 25 10 10
      vertex 25 10 0
    endloop
  endfacet
  facet normal 1 0 0
    outer loop
      vertex 25 0 0
      vertex 25 10 0
      vertex 25 10 10
    endloop
  endfacet
  facet normal 1 0 0
    outer loop
      vertex 25 0 10
      vertex 25 0 0
      vertex 25 10 10
    endloop
  endfacet
endsolid OpenSCAD_Model
