solid OpenSCAD_Model
  facet normal -1 0 0
    outer loop
      vertex 60 0 10
      vertex 60 10 10
      vertex 60 0 0
    endloop
  endfacet
  facet normal -1 0 0
    outer loop
      vertex 60 0 0
      vertex 60 10 10
      vertex 60 10 0
    endloop
  endfacet
  facet normal 0 0 1
    outer loop
      vertex 60 0 10
      vertex 70 0 10
      vertex 70 10 10
    endloop
  endfacet
  facet normal 0 0 1
    outer loop
      vertex 60 10 10
      vertex 60 0 10
      vertex 70 10 10
    endloop
  endfacet
  facet normal 0 -1 0
    outer loop
      vertex 60 0 0
      vertex 70 0 0
      vertex 70 0 10
    endloop
  endfacet
  facet normal 0 -1 0
    outer loop
      vertex 60 0 10
      vertex 60 0 0
      vertex 70 0 10
    endloop
  endfacet
  facet normal 0 0 -1
    outer loop
      vertex 60 10 0
      vertex 70 10 0
      vertex 60 0 0
    endloop
  endfacet
  facet normal 0 0 -1
    outer loop
      vertex 60 0 0
      vertex 70 10 0
      vertex 70 0 0
    endloop
  endfacet
  facet normal 0 1 0
    outer loop
      vertex 60 10 10
      vertex 70 10 10
      vertex 60 10 0
    endloop
  endfacet
  facet normal 0 1 0
    outer loop
      vertex 60 10 0
      vertex 70 10 10
      vertex 70 10 0
    endloop
  endfacet
  facet normal 1 0 0
    outer loop
      vertex 70 0 0
      vertex 70 10 0
      vertex 70 10 10
    endloop
  endfacet
  facet normal 1 0 0
    outer loop
      vertex 70 0 10
      vertex 70 0 0
      vertex 70 10 10
    endloop
  endfacet
endsolid OpenSCAD_Model
